<svg width="18" height="12" viewBox="0 0 18 12" fill="none" xmlns="http://www.w3.org/2000/svg">
<path d="M13.0303 0.96967C12.7374 0.676777 12.2626 0.676777 11.9697 0.96967C11.6768 1.26256 11.6768 1.73744 11.9697 2.03033L13.0303 0.96967ZM17 6L17.5303 6.53033C17.8232 6.23744 17.8232 5.76256 17.5303 5.46967L17 6ZM11.9697 9.96967C11.6768 10.2626 11.6768 10.7374 11.9697 11.0303C12.2626 11.3232 12.7374 11.3232 13.0303 11.0303L11.9697 9.96967ZM1 5.25C0.585786 5.25 0.25 5.58579 0.25 6C0.25 6.41421 0.585786 6.75 1 6.75V5.25ZM11.9697 2.03033L16.4697 6.53033L17.5303 5.46967L13.0303 0.96967L11.9697 2.03033ZM16.4697 5.46967L11.9697 9.96967L13.0303 11.0303L17.5303 6.53033L16.4697 5.46967ZM17 5.25H1V6.75H17V5.25Z" fill="white"/>
</svg>
