<svg width="14" height="14" viewBox="0 0 14 14" fill="none" xmlns="http://www.w3.org/2000/svg">
<path d="M9.66669 3.66667C9.66669 3.48986 9.73692 3.32029 9.86195 3.19526C9.98697 3.07024 10.1565 3 10.3334 3C10.5102 3 10.6797 3.07024 10.8048 3.19526C10.9298 3.32029 11 3.48986 11 3.66667C11 3.84348 10.9298 4.01305 10.8048 4.13807C10.6797 4.2631 10.5102 4.33333 10.3334 4.33333C10.1565 4.33333 9.98697 4.2631 9.86195 4.13807C9.73692 4.01305 9.66669 3.84348 9.66669 3.66667Z" fill="#636270"/>
<path fill-rule="evenodd" clip-rule="evenodd" d="M7.00004 3.83337C6.16019 3.83337 5.35473 4.167 4.76087 4.76087C4.167 5.35473 3.83337 6.16019 3.83337 7.00004C3.83337 7.83989 4.167 8.64535 4.76087 9.23921C5.35473 9.83308 6.16019 10.1667 7.00004 10.1667C7.83989 10.1667 8.64535 9.83308 9.23921 9.23921C9.83308 8.64535 10.1667 7.83989 10.1667 7.00004C10.1667 6.16019 9.83308 5.35473 9.23921 4.76087C8.64535 4.167 7.83989 3.83337 7.00004 3.83337ZM4.83337 7.00004C4.83337 6.42541 5.06165 5.87431 5.46798 5.46798C5.87431 5.06165 6.42541 4.83337 7.00004 4.83337C7.57468 4.83337 8.12578 5.06165 8.53211 5.46798C8.93843 5.87431 9.16671 6.42541 9.16671 7.00004C9.16671 7.57468 8.93843 8.12578 8.53211 8.53211C8.12578 8.93843 7.57468 9.16671 7.00004 9.16671C6.42541 9.16671 5.87431 8.93843 5.46798 8.53211C5.06165 8.12578 4.83337 7.57468 4.83337 7.00004Z" fill="#636270"/>
<path fill-rule="evenodd" clip-rule="evenodd" d="M10.5054 0.888648C8.1756 0.630379 5.82444 0.630379 3.49468 0.888648C2.15335 1.03865 1.07002 2.09532 0.912683 3.44332C0.636283 5.80637 0.636283 8.19359 0.912683 10.5566C1.07002 11.9046 2.15268 12.9613 3.49468 13.1113C5.80535 13.3693 8.19468 13.3693 10.5054 13.1113C11.8467 12.9613 12.93 11.9046 13.0874 10.5566C13.3638 8.19359 13.3638 5.80637 13.0874 3.44332C12.93 2.09532 11.8474 1.03865 10.5054 0.888648ZM3.60535 1.88198C5.86155 1.6319 8.13848 1.6319 10.3947 1.88198C11.2813 1.98198 11.9914 2.68132 12.0947 3.55998C12.362 5.84553 12.362 8.15444 12.0947 10.44C11.9914 11.3186 11.2813 12.0186 10.3947 12.1173C8.13848 12.3674 5.86155 12.3674 3.60535 12.1173C2.71868 12.0186 2.00868 11.3186 1.90535 10.44C1.63805 8.15444 1.63805 5.84553 1.90535 3.55998C2.00868 2.68132 2.71868 1.98132 3.60535 1.88265V1.88198Z" fill="#636270"/>
</svg>
