<svg width="36" height="23" viewBox="0 0 36 23" fill="none" xmlns="http://www.w3.org/2000/svg">
<path d="M35.6525 18.3935V17.9615H35.54L35.4099 18.258L35.2805 17.9615H35.1676V18.3935H35.2475V18.0681L35.3692 18.3489H35.452L35.5737 18.0674V18.3935H35.6529H35.6525ZM34.9389 18.3935V18.0355H35.0829V17.9626H34.715V18.0355H34.859V18.3935H34.9382H34.9389Z" fill="#F79410"/>
<path d="M22.8674 20.2465H13.1331V2.75269H22.8676L22.8674 20.2465Z" fill="#FF5F00"/>
<path d="M13.7503 11.4999C13.7503 7.95133 15.4118 4.79021 17.9992 2.75304C16.0407 1.20874 13.6183 0.370594 11.1242 0.37428C4.98034 0.37428 0 5.35534 0 11.4999C0 17.6446 4.98034 22.6256 11.1242 22.6256C13.6184 22.6293 16.0408 21.7912 17.9994 20.2469C15.4122 18.2101 13.7503 15.0487 13.7503 11.4999Z" fill="#EB001B"/>
<path d="M36 11.4999C36 17.6446 31.0197 22.6256 24.8758 22.6256C22.3813 22.6293 19.9586 21.7911 17.9997 20.2469C20.5878 18.2097 22.2494 15.0487 22.2494 11.4999C22.2494 7.95115 20.5878 4.79021 17.9997 2.75304C19.9586 1.20879 22.3812 0.370659 24.8756 0.374279C31.0195 0.374279 35.9998 5.35534 35.9998 11.4999" fill="#F79E1B"/>
</svg>
