<svg width="16" height="14" viewBox="0 0 16 14" fill="none" xmlns="http://www.w3.org/2000/svg">
<path d="M5.03333 13.5C11.07 13.5 14.3723 8.49801 14.3723 4.16134C14.3723 4.02067 14.369 3.87701 14.3627 3.73634C15.0052 3.27167 15.5596 2.69609 16 2.03667C15.4017 2.30267 14.7667 2.47667 14.116 2.55201C14.8008 2.14153 15.3136 1.49669 15.5593 0.737007C14.915 1.1189 14.2104 1.38831 13.4757 1.53367C12.9807 1.00745 12.3261 0.658984 11.6132 0.542161C10.9002 0.425339 10.1687 0.546672 9.53161 0.887395C8.89456 1.22812 8.38752 1.76925 8.08891 2.42709C7.79031 3.08493 7.71677 3.82284 7.87967 4.52667C6.575 4.46121 5.29865 4.1223 4.13336 3.53193C2.96806 2.94156 1.93984 2.1129 1.11533 1.09967C0.696305 1.82217 0.568091 2.67711 0.756747 3.49074C0.945403 4.30437 1.43677 5.01564 2.131 5.48001C1.60977 5.46349 1.09995 5.32318 0.643667 5.07067V5.11134C0.643231 5.8695 0.905349 6.60442 1.38547 7.19119C1.86559 7.77796 2.53409 8.18036 3.27733 8.33001C2.79463 8.46209 2.28801 8.48137 1.79667 8.38634C2.00644 9.03835 2.41454 9.6086 2.964 10.0175C3.51346 10.4264 4.17688 10.6536 4.86167 10.6673C4.18054 11.2025 3.40049 11.598 2.56623 11.8312C1.73197 12.0643 0.859899 12.1305 0 12.026C1.50191 12.9894 3.24899 13.501 5.03333 13.5Z" fill="#636270"/>
</svg>
